<svg width="512" height="512" viewBox="0 0 512 512" fill="none" xmlns="http://www.w3.org/2000/svg">
<path d="M178.222 451C178.222 451 133.778 451 133.778 406.556V95.4444C133.778 95.4444 133.778 51 178.222 51H333.778C333.778 51 378.222 51 378.222 95.4444V406.556C378.222 406.556 378.222 451 333.778 451H178.222Z" fill="#31373D"/>
<path d="M156 106.556H356V395.444H156V106.556Z" fill="#55ACEE"/>
<g clip-path="url(#clip0_83_2)">
<path d="M222.03 300.189C238.297 300.189 251.485 278.166 251.485 251C251.485 223.834 238.297 201.811 222.03 201.811C205.762 201.811 192.574 223.834 192.574 251C192.574 278.166 205.762 300.189 222.03 300.189Z" fill="#F5F8FA"/>
<path d="M222.03 302.967C203.956 302.967 189.796 280.141 189.796 251C189.796 221.859 203.956 199.033 222.03 199.033C240.104 199.033 254.263 221.859 254.263 251C254.263 280.141 240.104 302.967 222.03 302.967ZM222.03 204.589C207.318 204.589 195.352 225.407 195.352 251C195.352 276.593 207.318 297.411 222.03 297.411C236.741 297.411 248.707 276.593 248.707 251C248.707 225.407 236.741 204.589 222.03 204.589Z" fill="#E1E8ED"/>
<path d="M213.756 269.37C223.901 269.37 232.126 261.146 232.126 251C232.126 240.854 223.901 232.63 213.756 232.63C203.61 232.63 195.385 240.854 195.385 251C195.385 261.146 203.61 269.37 213.756 269.37Z" fill="#8899A6"/>
<path d="M213.756 264.204C221.048 264.204 226.959 258.292 226.959 251C226.959 243.708 221.048 237.796 213.756 237.796C206.463 237.796 200.552 243.708 200.552 251C200.552 258.292 206.463 264.204 213.756 264.204Z" fill="#292F33"/>
<path d="M218.633 246.811C221.55 246.811 223.915 244.447 223.915 241.53C223.915 238.613 221.55 236.248 218.633 236.248C215.716 236.248 213.352 238.613 213.352 241.53C213.352 244.447 215.716 246.811 218.633 246.811Z" fill="#F5F8FA"/>
<path d="M290.2 300.189C306.468 300.189 319.656 278.166 319.656 251C319.656 223.834 306.468 201.811 290.2 201.811C273.932 201.811 260.744 223.834 260.744 251C260.744 278.166 273.932 300.189 290.2 300.189Z" fill="#F5F8FA"/>
<path d="M290.2 302.967C272.126 302.967 257.967 280.141 257.967 251C257.967 221.859 272.126 199.033 290.2 199.033C308.274 199.033 322.437 221.859 322.437 251C322.437 280.141 308.274 302.967 290.2 302.967ZM290.2 204.589C275.489 204.589 263.522 225.411 263.522 251C263.522 276.593 275.489 297.411 290.2 297.411C304.911 297.411 316.881 276.593 316.881 251C316.881 225.407 304.911 204.589 290.2 204.589Z" fill="#E1E8ED"/>
<path d="M281.926 269.37C292.072 269.37 300.296 261.146 300.296 251C300.296 240.854 292.072 232.63 281.926 232.63C271.78 232.63 263.556 240.854 263.556 251C263.556 261.146 271.78 269.37 281.926 269.37Z" fill="#8899A6"/>
<path d="M281.926 264.204C289.218 264.204 295.13 258.292 295.13 251C295.13 243.708 289.218 237.796 281.926 237.796C274.634 237.796 268.722 243.708 268.722 251C268.722 258.292 274.634 264.204 281.926 264.204Z" fill="#292F33"/>
<path d="M286.804 246.811C289.721 246.811 292.085 244.447 292.085 241.53C292.085 238.613 289.721 236.248 286.804 236.248C283.887 236.248 281.522 238.613 281.522 241.53C281.522 244.447 283.887 246.811 286.804 246.811Z" fill="#F5F8FA"/>
</g>
<defs>
<clipPath id="clip0_83_2">
<rect width="133.333" height="133.333" fill="white" transform="translate(189.333 184.333)"/>
</clipPath>
</defs>
</svg>
